<?xml version="1.0" encoding="utf-8"?>
<!-- Generator: Adobe Illustrator 15.0.2, SVG Export Plug-In . SVG Version: 6.00 Build 0)  -->
<!DOCTYPE svg PUBLIC "-//W3C//DTD SVG 1.1//EN" "http://www.w3.org/Graphics/SVG/1.1/DTD/svg11.dtd">
<svg version="1.1" id="Layer_1" xmlns="http://www.w3.org/2000/svg" xmlns:xlink="http://www.w3.org/1999/xlink" x="0px" y="0px"
	 width="286.265px" height="102.003px" viewBox="0 0 286.265 102.003" enable-background="new 0 0 286.265 102.003"
	 xml:space="preserve">
<g>
	<g>
		<g>
			<g>
				<g>
					<path fill="#FFFFFF" d="M248.007,69.041c0,7.146,3.436,12.189,7.869,15.232c4.043,2.717,8.813,3.715,13.795,3.715
						c3.545,0,7.535-0.83,8.754-1.273c0.611-0.223,1.273-0.443,1.936-0.557c0.834-1.049,2.273-4.709,2.66-7.588
						c-0.221-0.389-1.049-0.498-1.439-0.225c-1.271,3.271-4.43,7.926-11.58,7.926c-9.084,0-16.455-6.428-16.455-18.061
						c0-11.471,7.203-16.842,15.682-16.842c8.033,0,10.525,4.32,11.355,8.088c0.389,0.332,1.219,0.275,1.498-0.111
						c-0.443-3.381-0.723-6.867-0.775-8.145c-0.5,0.055-0.887-0.057-1.553-0.221c-2.602-0.721-6.814-1.33-9.807-1.33
						c-5.762,0-10.912,1.551-14.959,4.709C250.778,57.626,248.007,62.892,248.007,69.041 M225.901,53.861
						c0-1,0.223-1.273,0.779-1.443c0.498-0.219,1.328-0.328,2.547-0.328c4.207,0,8.256,2.049,8.256,7.477
						c0,5.211-3.049,6.871-8.699,7.092c-2.826,0.109-2.883,0-2.883-1.551V53.861z M225.901,69.759c0-1.107,0.223-1.441,3.215-1.441
						c8.809,0,11.023,5.1,11.023,9.477c0,5.539-3.766,7.756-8.699,7.756c-1.66,0-3.32-0.277-4.377-1.551
						c-1.049-1.219-1.162-4.043-1.162-6.039V69.759z M221.36,78.791c0,5.816-0.109,6.426-3.045,6.926l-0.998,0.168
						c-0.334,0.33-0.225,1.217,0.109,1.383c2.049-0.055,3.934-0.166,6.371-0.166c2.326,0,5.043,0.166,6.646,0.166
						c9.975,0,14.736-4.322,14.736-10.748c0-5.928-4.43-8.697-7.42-9.25c-0.611-0.113-1.055-0.277-1.055-0.832
						c3.324-1.551,5.652-3.604,5.652-7.588c0-3.547-1.83-5.764-4.213-6.928c-2.492-1.273-5.816-1.551-9.305-1.551
						c-5.152,0-8.92,0.166-11.914,0.443c-0.441,0.223-0.496,1.053-0.053,1.385l1.77,0.166c2.498,0.223,2.717,1.271,2.717,5.373
						V78.791z"/>
					<path fill="#FFFFFF" d="M198.257,78.791c-2.66,0-5.038-2.549-5.038-6.482c0-3.766,1.995-6.203,4.651-6.203
						c3.381,0,4.93,3.156,4.93,6.924C202.8,76.41,201.251,78.791,198.257,78.791 M201.251,88.875c3.988,0,6.316,1.439,6.316,4.82
						c0,3.156-3.271,5.928-8.201,5.928c-5.041,0-7.424-2.492-7.424-5.486c0-2.104,1.329-3.822,2.658-4.652
						c0.777-0.5,2.99-0.609,4.766-0.609H201.251z M206.458,66.492c-1.219,0-1.609-0.109-3.381-0.885
						c-1.273-0.555-3.213-1.109-5.316-1.109c-4.931,0-9.031,3.602-9.031,8.365c0,3.547,2.271,5.707,4.155,6.701
						c0,0.279-0.278,0.725-0.556,1.055c-0.939,0.998-1.994,1.938-2.934,2.549c-0.613,0.443-0.833,0.664-0.833,0.941
						c0,1.939,1.882,3.824,4.044,4.377c0.5,0.332,0.055,0.832-0.444,1.332c-1.274,1.273-2.827,2.711-3.764,3.711
						c-0.39,0.441-0.613,1.162-0.613,2.049c0,2.77,2.383,6.426,9.198,6.426c7.203,0,13.793-4.432,13.793-10.471
						c0-5.539-4.65-6.092-7.754-6.092c-2.436,0-4.709,0.166-6.594,0.166c-2.602,0-3.878-1.055-3.878-2.328
						c0-1.607,1.774-2.66,2.438-3.049c0.668,0.059,1.439,0.17,2.438,0.17c7.037,0,9.307-4.988,9.307-8.811
						c0-0.943,0-1.885-0.109-2.828h3.988c0.828-0.109,0.943-1.994,0.334-2.27H206.458z M162.579,80.896
						c0,3.988-0.055,4.545-2.104,4.82l-1.164,0.168c-0.387,0.273-0.276,1.217,0.109,1.383c1.553-0.109,3.213-0.166,5.207-0.166
						c1.939,0,3.547,0.057,5.041,0.166c0.389-0.166,0.5-1.109,0.111-1.383l-0.996-0.168c-1.997-0.334-2.107-0.832-2.107-4.82v-8.477
						c0-1.609,0.11-2.385,0.833-3.324c0.778-1.055,2.603-1.939,4.709-1.939c3.767,0,5.21,2.328,5.21,5.486v8.254
						c0,3.988-0.059,4.486-2.107,4.82l-1.051,0.168c-0.389,0.273-0.277,1.217,0.109,1.383c1.496-0.109,3.158-0.166,5.152-0.166
						c1.939,0,3.547,0.057,5.207,0.166c0.389-0.166,0.501-1.109,0.109-1.383l-1.217-0.168c-1.994-0.275-2.105-0.832-2.105-4.82
						v-9.527c0-3.713-1.883-6.871-6.484-6.871c-2.823,0-5.426,1.385-7.752,2.826c-0.389,0-0.613-0.279-0.613-0.611
						c0-0.498,0-1.33,0.11-2.604c-0.11-0.275-0.384-0.387-0.605-0.387c-1.109,0.83-4.265,2.27-5.542,2.715
						c-0.275,0.164-0.275,0.775-0.055,0.996l0.499,0.334c1.495,0.994,1.495,1.273,1.495,3.436V80.896z M150.171,52.531
						c-1.664,0-2.99,1.164-2.99,2.99c0,1.498,1.105,2.771,2.824,2.771c1.553,0,2.938-0.887,2.938-2.881
						C152.942,53.861,151.834,52.531,150.171,52.531 M148.345,80.896c0,3.988-0.059,4.545-2.107,4.82l-1.164,0.168
						c-0.386,0.273-0.275,1.217,0.113,1.383c1.55-0.109,3.21-0.166,5.204-0.166c1.939,0,3.55,0.057,5.21,0.166
						c0.387-0.166,0.498-1.109,0.109-1.383l-1.162-0.168c-1.994-0.275-2.105-0.832-2.105-4.82v-9.971
						c0-2.273,0.111-4.934,0.222-6.869c-0.056-0.223-0.274-0.334-0.554-0.334c-1.275,0.83-4.432,2.27-5.708,2.715
						c-0.274,0.164-0.274,0.775-0.055,0.996l0.499,0.334c1.498,0.994,1.498,1.273,1.498,3.436V80.896z M142.138,67.601
						c0.498-0.332,0.61-1.83-0.055-2.326h-6.15c-0.941,0-0.996-0.057-0.996-1.055v-2.492c-0.225-0.387-0.888-0.387-1.167-0.279
						c-0.554,1.109-1.603,2.607-2.323,3.27c-0.556,0.5-1.941,1.219-3.547,1.719c-0.222,0.33-0.167,0.941,0.164,1.164h1.551
						c1.111,0,1.164,0.109,1.164,1.604v12.688c0,3.324,0.998,5.982,5.764,5.982c2.826,0,4.82-1.383,5.817-2.547
						c0.11-0.332-0.11-0.941-0.554-0.941c-0.166,0-0.887,0.609-1.386,0.777c-0.443,0.164-0.942,0.277-1.495,0.277
						c-3.656,0-4.046-2.938-4.046-6.152V68.929c0-1.162,0.058-1.328,0.997-1.328H142.138z M112.497,80.896
						c0,3.988-0.052,4.486-2.104,4.82l-1.055,0.168c-0.386,0.273-0.273,1.217,0.113,1.383c1.44-0.109,3.104-0.166,5.098-0.166
						c1.936,0,3.544,0.057,6.148,0.166c0.389-0.166,0.498-1.109,0.109-1.383l-1.991-0.168c-2.106-0.166-2.218-0.832-2.218-4.82
						v-7.535c0-1.885,0.166-3.49,0.72-4.266c0.444-0.609,1.106-1.109,1.994-1.109c0.775,0,1.61,0.332,2.438,0.889
						c0.389,0.221,0.665,0.387,1.219,0.387c0.889,0,2.38-0.719,2.38-2.549c0-1.33-1.106-2.215-2.49-2.215
						c-2.052,0-4.155,1.717-6.095,3.324c-0.109-0.055-0.166-0.221-0.166-0.498v-3.215c0-0.221-0.168-0.332-0.444-0.387
						c-1.384,0.83-4.319,2.27-5.593,2.715c-0.277,0.164-0.277,0.775-0.059,0.996l0.502,0.334c1.492,0.994,1.492,1.273,1.492,3.436
						V80.896z M102.562,76.853c0,4.266-1.495,9.361-6.371,9.361c-4.875,0-7.148-5.428-7.148-10.471c0-6.094,2.717-9.584,6.371-9.584
						C100.678,66.16,102.562,72.144,102.562,76.853 M96.081,64.498c-6.541,0-11.803,4.986-11.803,11.965
						c0,6.926,4.988,11.412,11.359,11.412c6.924,0,11.688-4.984,11.688-11.908C107.325,69.15,102.282,64.498,96.081,64.498
						 M63.084,71.978c0-1.83,0.165-2.66,0.663-3.271c0.608-0.666,2.326-1.551,4.711-1.551c4.985,0,7.479,4.49,7.479,8.92
						c0,5.762-2.66,9.973-7.202,9.973c-1.164,0-2.884-0.389-3.991-1.219c-1.106-0.887-1.659-1.551-1.659-3.322V71.978z
						 M58.981,95.025c0,3.988-0.055,4.541-2.104,4.82l-1.162,0.164c-0.389,0.277-0.276,1.219,0.11,1.387
						c1.55-0.113,3.21-0.168,5.207-0.168c1.939,0,3.547,0.055,6.204,0.168c0.39-0.168,0.499-1.109,0.112-1.387l-2.161-0.277
						c-1.994-0.275-2.104-0.773-2.104-4.707v-5.818c0-1.164,0.274-1.441,0.772-1.551c0.498,0.109,2.051,0.219,3.049,0.219
						c7.863,0,13.518-5.537,13.518-13.238c0-5.596-3.6-10.139-9.198-10.139c-3.544,0-7.034,2.27-7.752,2.602
						c-0.389,0-0.501-0.332-0.501-0.717c0-0.721,0.112-1.551,0.222-2.549c-0.109-0.279-0.334-0.389-0.666-0.389
						c-1.44,1.053-4.045,2.381-5.484,2.992c-0.276,0.164-0.276,0.775-0.055,0.996l0.496,0.334c1.496,0.994,1.496,1.273,1.496,3.436
						V95.025z M40.144,71.257c-0.386,0-0.386-0.164-0.386-0.279c0.055-1.828,2.881-4.818,6.152-4.818c3.21,0,4.265,1.939,4.265,3.49
						c0,0.719-0.167,0.941-0.332,1.053c-0.443,0.332-1.663,0.555-5.763,0.555H40.144z M50.895,72.919
						c2.325,0,3.101-0.057,3.27-0.389c0.11-0.223,0.219-0.666,0.219-1.438c0-3.326-3.101-6.596-7.867-6.596
						c-6.647,0-11.137,5.705-11.137,12.52c0,2.438,0.666,5.043,2.328,7.201c1.605,2.107,4.432,3.656,8.031,3.656
						c2.884,0,6.872-1.383,8.702-5.152c-0.058-0.498-0.446-0.83-1-0.662c-1.717,2.158-3.268,2.717-5.098,2.717
						c-5.927,0-9.195-4.768-9.195-10.363c0-1.385,0.055-1.494,1.496-1.494H50.895z M10.008,53.861c0-1.551,0.167-1.771,3.599-1.771
						c6.149,0,8.867,4.152,8.867,8.529c0,3.77-1.276,5.707-2.772,6.869c-1.605,1.219-3.711,1.441-5.703,1.441
						c-2.827,0-3.659-0.113-3.824-0.277c-0.167-0.221-0.167-0.83-0.167-1.826V53.861z M5.464,78.791c0,5.816-0.11,6.537-3.323,6.926
						l-1.389,0.168c-0.329,0.387-0.219,1.217,0.112,1.383c2.605-0.109,4.599-0.166,6.927-0.166c2.216,0,4.098,0.057,6.59,0.166
						c0.334-0.166,0.444-1.109,0.11-1.383l-1.162-0.168c-3.21-0.443-3.323-1.109-3.323-6.926v-6.98c0-1.164,0.112-1.219,2.604-1.219
						c2.214,0,3.101,0.553,3.934,1.775c1.715,2.49,3.988,6.313,5.426,8.365c3.936,5.594,6.763,6.979,11.471,6.979
						c1.049,0,1.937-0.109,2.436-0.275c0.276-0.223,0.224-0.666-0.055-0.775c-1.496-0.113-2.881-0.721-3.824-1.551
						c-3.764-3.16-6.705-7.594-11.137-14.74c-0.274-0.443-0.554-0.996-0.274-1.328c2.772-1.109,6.925-3.988,6.925-9.252
						c0-3.879-1.939-6.371-4.597-7.758c-2.547-1.383-5.818-1.66-9.252-1.66c-5.432,0-9.253,0.166-12.356,0.443
						c-0.444,0.223-0.444,1.107-0.052,1.385l1.77,0.219c2.273,0.279,2.438,1.219,2.438,6.484V78.791z"/>
					<g>
						<path fill="#FFFFFF" d="M87.292,38.23c-1.994-0.277-2.104-0.83-2.104-4.821v-9.973c0-2.271,0.109-4.928,0.219-6.87
							c-0.055-0.222-0.273-0.332-0.553-0.332c-1.271,0.833-4.432,2.273-5.705,2.717c-0.277,0.165-0.277,0.775-0.053,0.995
							l0.493,0.332c1.495,1,1.495,1.274,1.495,3.438v9.694c0,3.991-0.055,4.544-2.104,4.821l-1.161,0.166
							c-0.39,0.277-0.276,1.219,0.109,1.384c1.551-0.11,3.21-0.165,5.21-0.165c1.937,0,3.545,0.055,5.205,0.165
							c0.389-0.165,0.5-1.106,0.109-1.384L87.292,38.23z"/>
						<path fill="#FFFFFF" d="M28.79,31.691c-1.44,2.881-2.941,4.818-3.936,5.375c-1.219,0.61-2.824,0.832-7.092,0.832
							c-4.873,0-6.037-0.611-6.703-1.276c-0.885-0.939-1.052-2.824-1.052-5.76v-7.814c0-1.438,0.167-1.496,1.827-1.496h3.213
							c2.161,0,3.492,0.057,4.265,0.277c1.112,0.279,1.498,1.109,1.72,2.108l0.499,2.159c0.276,0.334,1.216,0.334,1.438-0.055
							c0-1.219-0.222-3.323-0.222-5.319c0-2.104,0.222-4.262,0.222-5.596c-0.222-0.386-1.162-0.386-1.438-0.055l-0.444,2.271
							c-0.277,1.386-0.663,1.717-1.331,1.941c-0.663,0.22-2.38,0.332-4.708,0.332h-3.213c-1.66,0-1.827,0-1.827-1.55V6.982
							c0-2.104,0-2.213,1.663-2.213h3.988c2.438,0,4.21,0.052,5.374,0.332c2.881,0.72,3.38,2.657,4.21,5.264
							c0.277,0.332,1.162,0.219,1.386-0.112c-0.224-2.44-0.556-6.426-0.89-7.368c-0.663,0.167-3.931,0.167-7.478,0.167H7.847
							c-2.273,0-4.155-0.057-6.538-0.167C0.978,3.051,0.865,4.045,1.197,4.27l0.887,0.107c3.271,0.392,3.38,1.222,3.38,6.982v19.946
							c0,5.816-0.277,6.648-3.435,6.925L0.2,38.396c-0.332,0.332-0.219,1.219,0.112,1.384c3.268-0.11,5.152-0.165,7.535-0.165h4.985
							c4.93,0,9.863,0.055,14.849,0.165c0.72-1.495,2.106-5.761,2.493-7.7C29.952,31.582,29.179,31.415,28.79,31.691z"/>
						<path fill="#FFFFFF" d="M103.47,17.01c-2.052,0-4.158,1.717-6.092,3.325c-0.113-0.058-0.17-0.222-0.17-0.501v-3.211
							c0-0.224-0.164-0.334-0.443-0.389c-1.387,0.833-4.32,2.273-5.594,2.717c-0.277,0.165-0.277,0.775-0.055,0.995l0.496,0.332
							c1.498,1,1.498,1.274,1.498,3.438v9.694c0,3.991-0.058,4.489-2.106,4.821l-1.055,0.166c-0.384,0.277-0.274,1.219,0.112,1.384
							c1.438-0.11,3.102-0.165,5.098-0.165c1.939,0,3.545,0.055,6.148,0.165c0.387-0.165,0.499-1.106,0.11-1.384l-1.994-0.166
							c-2.106-0.168-2.216-0.83-2.216-4.821v-7.535c0-1.882,0.17-3.49,0.723-4.265c0.443-0.608,1.107-1.106,1.994-1.106
							c0.773,0,1.605,0.332,2.436,0.882c0.387,0.224,0.666,0.391,1.219,0.391c0.887,0,2.383-0.72,2.383-2.55
							C105.962,17.897,104.855,17.01,103.47,17.01z"/>
						<path fill="#FFFFFF" d="M54.664,38.23c-1.999-0.277-2.108-0.83-2.108-4.821v-9.529c0-3.711-1.885-6.87-6.481-6.87
							c-2.824,0-5.429,1.386-7.757,2.824c-0.389,0-0.608-0.274-0.608-0.608c0-0.499,0-1.329,0.109-2.603
							c-0.109-0.279-0.389-0.389-0.608-0.389c-1.107,0.833-4.268,2.273-5.541,2.717c-0.277,0.165-0.277,0.775-0.053,0.995
							l0.494,0.332c1.498,1,1.498,1.274,1.498,3.438v9.694c0,3.991-0.052,4.544-2.104,4.821l-1.164,0.166
							c-0.389,0.277-0.277,1.219,0.109,1.384c1.55-0.11,3.215-0.165,5.209-0.165c1.939,0,3.545,0.055,5.041,0.165
							c0.389-0.165,0.499-1.106,0.112-1.384l-1-0.166c-1.994-0.332-2.104-0.83-2.104-4.821v-8.475c0-1.607,0.109-2.383,0.833-3.325
							c0.772-1.052,2.602-1.941,4.708-1.941c3.766,0,5.207,2.328,5.207,5.486v8.255c0,3.991-0.055,4.489-2.104,4.821l-1.057,0.166
							c-0.386,0.277-0.274,1.219,0.115,1.384c1.496-0.11,3.156-0.165,5.15-0.165c1.939,0,3.544,0.055,5.209,0.165
							c0.384-0.165,0.499-1.106,0.109-1.384L54.664,38.23z"/>
						<path fill="#FFFFFF" d="M82.751,10.806c1.551,0,2.936-0.885,2.936-2.882c0-1.55-1.111-2.879-2.77-2.879
							c-1.664,0-2.993,1.162-2.993,2.991C79.924,9.532,81.03,10.806,82.751,10.806z"/>
						<path fill="#FFFFFF" d="M78.206,17.62c-1.55,0.112-2.492,0.165-3.881,0.165c-1.049,0-2.433-0.052-4.15-0.165
							c-0.389,0.222-0.443,0.997-0.111,1.384l1.273,0.167c0.666,0.112,0.994,0.332,0.994,0.83c0,0.334-0.219,1.496-0.994,3.435
							c-0.553,1.443-2.438,6.262-3.158,8.146c-0.443,1.164-0.83,1.939-1.052,2.104c-0.167-0.165-0.39-0.663-0.888-1.77
							c-1.273-2.884-2.881-6.762-4.155-10.583c-0.554-1.665-0.496-1.939,1.219-2.216l0.666-0.112
							c0.386-0.277,0.331-1.162-0.055-1.384c-1.882,0.112-2.993,0.165-4.489,0.165c-1.879,0-3.824-0.052-5.205-0.165
							c-0.446,0.165-0.499,0.94-0.17,1.384l1.109,0.167c1.994,0.276,2.495,2.049,3.323,4.098l4.656,11.247
							c0.83,2.052,1.66,4.213,2.104,5.764c0.167,0.166,0.444,0.225,0.721,0.225c0.222,0,0.443-0.059,0.554-0.225
							c0.72-1.883,1.273-3.158,1.829-4.545c0.888-2.268,4.319-10.302,5.098-11.797c1.604-3.103,2.104-4.544,4.043-4.821l0.833-0.112
							C78.653,18.672,78.593,17.842,78.206,17.62z"/>
						<path fill="#FFFFFF" d="M239.376,38.23c-1.994-0.277-2.107-0.83-2.107-4.821v-9.529c0-3.711-1.881-6.87-6.48-6.87
							c-2.824,0-5.43,1.386-7.754,2.824c-0.391,0-0.611-0.274-0.611-0.608c0-0.499,0-1.329,0.111-2.603
							c-0.111-0.279-0.385-0.389-0.609-0.389c-1.107,0.833-4.266,2.273-5.541,2.717c-0.275,0.165-0.275,0.775-0.053,0.995
							l0.496,0.332c1.498,1,1.498,1.274,1.498,3.438v9.694c0,3.991-0.059,4.544-2.104,4.821l-1.168,0.166
							c-0.385,0.277-0.273,1.219,0.111,1.384c1.549-0.11,3.215-0.165,5.209-0.165c1.939,0,3.545,0.055,5.039,0.165
							c0.389-0.165,0.502-1.106,0.113-1.384l-1-0.166c-1.992-0.332-2.104-0.83-2.104-4.821v-8.475c0-1.607,0.111-2.383,0.832-3.325
							c0.775-1.052,2.604-1.941,4.709-1.941c3.766,0,5.207,2.328,5.207,5.486v8.255c0,3.991-0.055,4.489-2.104,4.821l-1.055,0.166
							c-0.387,0.277-0.277,1.219,0.111,1.384c1.496-0.11,3.158-0.165,5.15-0.165c1.941,0,3.545,0.055,5.209,0.165
							c0.391-0.165,0.5-1.106,0.113-1.384L239.376,38.23z"/>
						<path fill="#FFFFFF" d="M117.267,17.01c-6.539,0-11.803,4.985-11.803,11.967c0,6.925,4.984,11.412,11.358,11.412
							c6.927,0,11.688-4.985,11.688-11.91C128.511,21.664,123.468,17.01,117.267,17.01z M117.376,38.728
							c-4.879,0-7.146-5.429-7.146-10.472c0-6.094,2.712-9.584,6.369-9.584c5.262,0,7.15,5.982,7.15,10.691
							C123.749,33.63,122.249,38.728,117.376,38.728z"/>
						<path fill="#FFFFFF" d="M286.022,38.396l-1.332-0.166c-1.99-0.277-2.104-0.83-2.104-4.821V7.204
							c0-2.435,0.113-5.207,0.168-6.867C282.646,0.112,282.423,0,282.2,0c-1.996,1.054-4.596,1.884-5.982,2.328
							c-0.275,0.167-0.275,0.942,0,1.109l0.555,0.332c1.66,1,1.717,1.331,1.717,4.599v25.041c0,3.206-0.055,4.183-1.131,4.591
							c0.002-0.012,0.021-0.038,0.021-0.047c0-0.387-0.164-0.721-0.383-0.721c-0.17,0-0.445,0.223-0.725,0.387
							c-0.33,0.167-0.83,0.334-1.385,0.334c-2.158,0-2.658-2.271-2.547-4.821l0.334-9.639c0.164-4.155-1.775-6.483-5.764-6.483
							c-4.045,0-10.305,3.933-10.305,6.815c0,0.499,0.277,0.777,0.773,0.777c0.832,0,2.328-0.391,3.16-1.054
							c0.443-0.334,0.498-0.997,0.553-1.884c0.109-1.718,1.994-2.493,3.545-2.493c3.436,0,4.104,2.769,4.045,4.821l-0.051,2.547
							c0,0.833-0.113,1.329-0.945,1.607l-6.594,2.383c-3.545,1.273-4.598,2.545-4.598,4.706c0,1.553,0.664,2.939,1.717,3.879
							c0.941,0.832,2.271,1.273,3.879,1.273c1.551,0,2.771-0.719,3.988-1.384c1.109-0.608,1.771-1.106,2.16-1.106
							c0.332,0,0.666,0.443,0.885,0.775c0.947,1.219,2.273,1.715,3.605,1.715c0.939,0,1.779-0.268,2.484-0.617
							c0.002,0.002,0.006,0.008,0.008,0.009c1.66-0.11,3.32-0.165,5.316-0.165c1.939,0,3.547,0.055,5.375,0.165
							C286.302,39.615,286.411,38.673,286.022,38.396z M268.353,33.907c-0.055,1.165-0.055,1.94-0.723,2.602
							c-0.555,0.557-2.27,1.389-3.375,1.389c-2.828,0-3.492-2.383-3.492-3.325c0-2.161,1.607-2.991,4.873-4.101
							c0.996-0.334,1.938-0.553,2.271-0.553c0.332,0,0.555,0.11,0.555,0.72L268.353,33.907z"/>
						<path fill="#FFFFFF" d="M249.737,20.113h6.262c0.496-0.332,0.607-1.83-0.059-2.328h-6.148c-0.943,0-0.998-0.052-0.998-1.052
							V14.24c-0.221-0.389-0.887-0.389-1.16-0.276c-0.559,1.106-1.611,2.602-2.332,3.27c-0.553,0.499-1.936,1.216-3.543,1.717
							c-0.223,0.332-0.166,0.94,0.166,1.162h1.551c1.109,0,1.164,0.112,1.164,1.605v12.689c0,3.323,0.996,5.98,5.76,5.98
							c2.826,0,4.82-1.384,5.82-2.545c0.109-0.334-0.111-0.945-0.555-0.945c-0.166,0-0.889,0.611-1.387,0.778
							c-0.443,0.167-0.941,0.276-1.496,0.276c-3.656,0-4.043-2.936-4.043-6.149V21.444
							C248.739,20.277,248.794,20.113,249.737,20.113z"/>
						<path fill="#FFFFFF" d="M213.171,34.573c-1.719,2.161-3.271,2.714-5.096,2.714c-5.928,0-9.197-4.763-9.197-10.359
							c0-1.386,0.057-1.496,1.494-1.496h10.25c2.328,0,3.102-0.055,3.271-0.389c0.109-0.222,0.221-0.666,0.221-1.441
							c0-3.325-3.105-6.593-7.869-6.593c-6.645,0-11.135,5.708-11.135,12.521c0,2.438,0.666,5.042,2.326,7.204
							c1.609,2.104,4.432,3.654,8.033,3.654c2.883,0,6.867-1.384,8.697-5.152C214.114,34.74,213.724,34.408,213.171,34.573z
							 M205.638,18.672c3.213,0,4.262,1.939,4.262,3.49c0,0.72-0.162,0.939-0.328,1.052c-0.445,0.334-1.664,0.556-5.764,0.556
							h-3.934c-0.387,0-0.387-0.167-0.387-0.276C199.542,21.664,202.366,18.672,205.638,18.672z"/>
						<path fill="#FFFFFF" d="M193.882,38.23c-1.994-0.277-2.104-0.83-2.104-4.821v-9.529c0-3.821-2.164-6.87-6.594-6.87
							c-2.604,0-5.318,1.273-7.537,2.824c-0.496,0.334-0.885,0.556-1.383,0.443c-1.551-2.268-3.102-3.268-5.873-3.268
							c-2.66,0-5.265,1.331-7.368,2.824c-0.387,0-0.608-0.274-0.608-0.608c0-0.499,0-1.329,0.109-2.603
							c-0.109-0.279-0.387-0.389-0.607-0.389c-1.109,0.833-4.268,2.273-5.539,2.717c-0.279,0.165-0.279,0.775-0.061,0.995
							l0.502,0.332c1.495,1,1.495,1.274,1.495,3.438v9.694c0,3.991-0.055,4.544-2.106,4.821l-1.328,0.166
							c-0.013,0.01-0.016,0.03-0.027,0.041c-0.01-0.011-0.013-0.031-0.025-0.041l-1.221-0.166c-1.994-0.277-2.104-0.83-2.104-4.821
							v-9.529c0-3.711-1.888-6.87-6.484-6.87c-2.826,0-5.432,1.386-7.757,2.824c-0.389,0-0.61-0.274-0.61-0.608
							c0-0.499,0-1.329,0.111-2.603c-0.111-0.279-0.386-0.389-0.609-0.389c-1.107,0.833-4.266,2.273-5.539,2.717
							c-0.279,0.165-0.279,0.775-0.055,0.995l0.498,0.332c1.496,1,1.496,1.274,1.496,3.438v9.694c0,3.991-0.055,4.544-2.104,4.821
							l-1.167,0.166c-0.384,0.277-0.274,1.219,0.109,1.384c1.556-0.11,3.216-0.165,5.21-0.165c1.939,0,3.545,0.055,5.043,0.165
							c0.386-0.165,0.498-1.106,0.111-1.384l-0.996-0.166c-1.998-0.332-2.109-0.83-2.109-4.821v-8.475
							c0-1.607,0.111-2.383,0.832-3.325c0.775-1.052,2.603-1.941,4.709-1.941c3.766,0,5.207,2.328,5.207,5.486v8.255
							c0,3.991-0.055,4.489-2.104,4.821l-1.053,0.166c-0.389,0.277-0.279,1.219,0.11,1.384c1.495-0.11,3.155-0.165,5.149-0.165
							c1.944,0,3.55,0.055,5.21,0.165c0.058-0.023,0.095-0.093,0.14-0.145c0.043,0.052,0.08,0.121,0.137,0.145
							c1.718-0.11,3.381-0.165,5.375-0.165c1.941,0,3.547,0.055,5.042,0.165c0.389-0.165,0.499-1.106,0.11-1.384l-0.998-0.166
							c-1.994-0.332-2.104-0.83-2.104-4.821v-8.587c0-1.775,0.277-2.493,0.83-3.158c0.83-0.997,2.383-1.997,4.654-1.997
							c3.434,0,5.097,1.997,5.097,5.71v8.031c0,3.991-0.055,4.489-2.104,4.821l-0.999,0.166c-0.39,0.277-0.277,1.219,0.111,1.384
							c1.551-0.11,3.049-0.165,5.043-0.165c1.937,0,3.545,0.055,5.205,0.165c0.389-0.165,0.503-1.106,0.111-1.384l-1.161-0.166
							c-1.997-0.277-2.108-0.83-2.108-4.821v-8.475c0-1.939,0.166-2.495,0.834-3.325c0.773-0.997,2.493-1.941,4.597-1.941
							c3.489,0,5.152,1.941,5.152,5.71v8.031c0,3.991-0.058,4.489-2.106,4.821l-0.996,0.166c-0.387,0.277-0.277,1.219,0.109,1.384
							c1.555-0.11,3.049-0.165,5.042-0.165c1.942,0,3.548,0.055,5.376,0.165c0.387-0.165,0.5-1.106,0.111-1.384L193.882,38.23z"/>
					</g>
				</g>
			</g>
		</g>
	</g>
</g>
</svg>
